<mxfile host="app.diagrams.net" modified="2024-05-01T20:18:49.419Z" agent="Mozilla/5.0 (Windows NT 10.0; Win64; x64) AppleWebKit/537.36 (KHTML, like Gecko) Chrome/121.0.0.0 Safari/537.36 OPR/107.0.0.0" etag="K-xnoIn4SzIgDPGBIbBX" version="24.3.1" type="device">
  <diagram name="Page-1" id="UMoOPBeN7Hpr6rgYaUYC">
    <mxGraphModel dx="1561" dy="662" grid="0" gridSize="10" guides="1" tooltips="1" connect="1" arrows="1" fold="1" page="0" pageScale="1" pageWidth="827" pageHeight="1169" math="0" shadow="0">
      <root>
        <mxCell id="0" />
        <mxCell id="1" parent="0" />
        <mxCell id="7Lsj-Iz55pZl6dZQ3rXk-11" value="&lt;h2&gt;&lt;font face=&quot;Georgia&quot;&gt;Data&lt;br&gt;Storage&lt;/font&gt;&lt;/h2&gt;" style="rounded=1;whiteSpace=wrap;html=1;fillColor=#D4D4D4;fontColor=#333333;strokeColor=#666666;" vertex="1" parent="1">
          <mxGeometry x="560" y="360" width="230" height="150" as="geometry" />
        </mxCell>
        <mxCell id="7Lsj-Iz55pZl6dZQ3rXk-8" value="" style="rounded=1;whiteSpace=wrap;html=1;fillColor=#D4D4D4;strokeColor=#36393d;" vertex="1" parent="1">
          <mxGeometry x="324" y="340" width="180" height="190" as="geometry" />
        </mxCell>
        <mxCell id="7Lsj-Iz55pZl6dZQ3rXk-1" value="&lt;h3&gt;&lt;font face=&quot;Georgia&quot;&gt;User&lt;br&gt;Services&lt;/font&gt;&lt;/h3&gt;" style="rounded=1;whiteSpace=wrap;html=1;" vertex="1" parent="1">
          <mxGeometry x="350" y="360" width="120" height="60" as="geometry" />
        </mxCell>
        <mxCell id="7Lsj-Iz55pZl6dZQ3rXk-2" value="&lt;h3&gt;&lt;font face=&quot;Georgia&quot;&gt;Analysis&lt;br&gt;Services&lt;/font&gt;&lt;/h3&gt;" style="rounded=1;whiteSpace=wrap;html=1;" vertex="1" parent="1">
          <mxGeometry x="350" y="450" width="120" height="60" as="geometry" />
        </mxCell>
        <mxCell id="7Lsj-Iz55pZl6dZQ3rXk-7" value="" style="rounded=1;whiteSpace=wrap;html=1;fillColor=#D4D4D4;fontColor=#333333;strokeColor=#666666;" vertex="1" parent="1">
          <mxGeometry x="90" y="340" width="180" height="190" as="geometry" />
        </mxCell>
        <mxCell id="7Lsj-Iz55pZl6dZQ3rXk-3" value="&lt;h3&gt;&lt;font face=&quot;Georgia&quot;&gt;User&lt;br&gt;Controller&lt;/font&gt;&lt;/h3&gt;" style="rounded=1;whiteSpace=wrap;html=1;" vertex="1" parent="1">
          <mxGeometry x="120" y="360" width="120" height="60" as="geometry" />
        </mxCell>
        <mxCell id="7Lsj-Iz55pZl6dZQ3rXk-4" value="&lt;h3&gt;&lt;font face=&quot;Georgia&quot;&gt;Analysis&lt;br&gt;Controller&lt;/font&gt;&lt;/h3&gt;" style="rounded=1;whiteSpace=wrap;html=1;" vertex="1" parent="1">
          <mxGeometry x="120" y="450" width="120" height="60" as="geometry" />
        </mxCell>
        <mxCell id="7Lsj-Iz55pZl6dZQ3rXk-22" value="" style="endArrow=classic;startArrow=classic;html=1;rounded=0;entryX=0;entryY=0.5;entryDx=0;entryDy=0;exitX=1;exitY=0.5;exitDx=0;exitDy=0;" edge="1" parent="1" source="7Lsj-Iz55pZl6dZQ3rXk-3" target="7Lsj-Iz55pZl6dZQ3rXk-1">
          <mxGeometry width="50" height="50" relative="1" as="geometry">
            <mxPoint x="300" y="410" as="sourcePoint" />
            <mxPoint x="350" y="360" as="targetPoint" />
          </mxGeometry>
        </mxCell>
        <mxCell id="7Lsj-Iz55pZl6dZQ3rXk-23" value="" style="endArrow=classic;startArrow=classic;html=1;rounded=0;exitX=1;exitY=0.5;exitDx=0;exitDy=0;" edge="1" parent="1" source="7Lsj-Iz55pZl6dZQ3rXk-4" target="7Lsj-Iz55pZl6dZQ3rXk-2">
          <mxGeometry width="50" height="50" relative="1" as="geometry">
            <mxPoint x="300" y="410" as="sourcePoint" />
            <mxPoint x="350" y="360" as="targetPoint" />
          </mxGeometry>
        </mxCell>
        <mxCell id="7Lsj-Iz55pZl6dZQ3rXk-25" value="" style="endArrow=classic;startArrow=classic;html=1;rounded=0;entryX=0;entryY=0.5;entryDx=0;entryDy=0;exitX=1;exitY=0.5;exitDx=0;exitDy=0;" edge="1" parent="1" source="7Lsj-Iz55pZl6dZQ3rXk-1" target="7Lsj-Iz55pZl6dZQ3rXk-11">
          <mxGeometry width="50" height="50" relative="1" as="geometry">
            <mxPoint x="520" y="620" as="sourcePoint" />
            <mxPoint x="580" y="435" as="targetPoint" />
          </mxGeometry>
        </mxCell>
        <mxCell id="7Lsj-Iz55pZl6dZQ3rXk-27" value="" style="endArrow=classic;startArrow=classic;html=1;rounded=0;exitX=0;exitY=0.5;exitDx=0;exitDy=0;" edge="1" parent="1" source="7Lsj-Iz55pZl6dZQ3rXk-11">
          <mxGeometry width="50" height="50" relative="1" as="geometry">
            <mxPoint x="580" y="435" as="sourcePoint" />
            <mxPoint x="470" y="480" as="targetPoint" />
          </mxGeometry>
        </mxCell>
        <mxCell id="7Lsj-Iz55pZl6dZQ3rXk-30" value="&lt;h3&gt;&lt;font face=&quot;Georgia&quot;&gt;Spring &lt;br&gt;Servlet&lt;/font&gt;&lt;/h3&gt;" style="rounded=1;whiteSpace=wrap;html=1;" vertex="1" parent="1">
          <mxGeometry x="-80" y="370" width="100" height="130" as="geometry" />
        </mxCell>
        <mxCell id="7Lsj-Iz55pZl6dZQ3rXk-32" value="" style="endArrow=classic;startArrow=classic;html=1;rounded=0;exitX=1;exitY=0.5;exitDx=0;exitDy=0;entryX=0;entryY=0.5;entryDx=0;entryDy=0;" edge="1" parent="1" source="7Lsj-Iz55pZl6dZQ3rXk-30" target="7Lsj-Iz55pZl6dZQ3rXk-3">
          <mxGeometry width="50" height="50" relative="1" as="geometry">
            <mxPoint x="200" y="430" as="sourcePoint" />
            <mxPoint x="250" y="380" as="targetPoint" />
          </mxGeometry>
        </mxCell>
        <mxCell id="7Lsj-Iz55pZl6dZQ3rXk-33" value="" style="endArrow=classic;startArrow=classic;html=1;rounded=0;exitX=1;exitY=0.5;exitDx=0;exitDy=0;entryX=0;entryY=0.5;entryDx=0;entryDy=0;" edge="1" parent="1" source="7Lsj-Iz55pZl6dZQ3rXk-30" target="7Lsj-Iz55pZl6dZQ3rXk-4">
          <mxGeometry width="50" height="50" relative="1" as="geometry">
            <mxPoint x="200" y="430" as="sourcePoint" />
            <mxPoint x="250" y="380" as="targetPoint" />
          </mxGeometry>
        </mxCell>
        <mxCell id="7Lsj-Iz55pZl6dZQ3rXk-34" value="" style="rounded=0;whiteSpace=wrap;html=1;" vertex="1" parent="1">
          <mxGeometry x="40" y="355" width="10" height="160" as="geometry" />
        </mxCell>
      </root>
    </mxGraphModel>
  </diagram>
</mxfile>
